# xmcd
#
# Track frame offsets: 
#        150
#        35994
#        48715
#        69853
#        96402
#        118022
#        149863
#        161033
#        188501
#
# Disc length: 2938 seconds
#
# Revision: 0
# Processed by: cddbd v1.5.2PL0 Copyright (c) Steve Scherf et al.
# Submitted via: ExactAudioCopy v0.95b3
#
DISCID=8a0b7809
DTITLE=Black Sabbath  - Paranoid  - Quadmix   FLAC
DYEAR=1900
DGENRE=
TTITLE0=War Pigs
TTITLE1=Paranoid
TTITLE2=Planet Caravan
TTITLE3=Iron Man
TTITLE4=Electric Funeral
TTITLE5=Hand Of Doom
TTITLE6=Rat Salad
TTITLE7=Fairies Wear Boots
TTITLE8=Hand Of Doom bastard mix
EXTD=
EXTT0=
EXTT1=
EXTT2=
EXTT3=
EXTT4=
EXTT5=
EXTT6=
EXTT7=
EXTT8=
PLAYORDER=
